<svg id="Layer_1" data-name="Layer 1" xmlns="http://www.w3.org/2000/svg" viewBox="0 0 95.17 93.39"><defs><style>.cls-1{stroke:#231f20;stroke-miterlimit:10;}.cls-2{stroke:#fff;stroke-linecap:round;stroke-linejoin:round;stroke-width:2px;}</style></defs><ellipse class="cls-1" cx="47.58" cy="46.7" rx="47.08" ry="46.2"/><path class="cls-2" d="M44.4,67.62c1-.23,1.15-.68,1.25-1.53a6.59,6.59,0,0,1,.89-2.15,9.19,9.19,0,0,0,1-4.66A12.63,12.63,0,0,0,46,54.18c-.14-.31-.46-.74-.32-1.1s.53-.29.66-.54a4.48,4.48,0,0,0,.09-1.16c0-.33-.33-.9-.31-1s.5-.73.6-.94a8.66,8.66,0,0,0,.39-1.22c.17-.56.44-1.12.57-1.69s0-.73.09-1.17c1.32.17.6-1.06,1.16-1.65.25-.26.89-.3,1.18-.5a6.86,6.86,0,0,0,1-1.34c.88.55-.8,2.23,0,3.1,1.2-.08,1.29-2.2,1.4-3.09s.14-1.44,1.19-1.41c.43,0,1.34.47,1.22-.5a.83.83,0,0,1-.82-1.18c.07-.12.52-.41.63-.53.3-.33.09-.48.65-.67.89-.3.63.31,1.18.67-.06,0,.79.15.81.15.34,0,.69,0,1,0,1.18.15.28.85,1,1.24.22.12.58,0,.82.11s.45.39.74.51c.69.31,1.32,0,1.92.57a5.69,5.69,0,0,1,1,2c-.45.16-1.19-.22-1.25.54,0,.46.61,1,.68,1.63a17.82,17.82,0,0,1,.12,2.43c0,.89-.23.75-.71,1.27a5.32,5.32,0,0,0-.68,1.44c-.35.73-.54.41-1.11,1a3.12,3.12,0,0,0-.74,1.63c0,.66.39.81.61,1.4.91-.44,2.65-1.52,2.88-2.58.07.06.21.09.27.14,0-.63.55-.64,1-.82.76-.34.75-.41,1.48.07s.94.66.89,1.65a4.54,4.54,0,0,0,.35,2.17c.28.76.47,1.5.75,2.27a3.24,3.24,0,0,1-.07,2.63c-.16.47.1,1.38-.24,1.79-.5.62-.68,0-.66-.58-.75-.08-.58.78-.79,1.17s-.51.29-.68.59a2.09,2.09,0,0,0-.08.87c-1.22.16-.71,1.35-1.24,2.17a5.81,5.81,0,0,0-1.34,2.56c-1.47.09-2.91.38-4.35.46-.81,0-3.72.45-3.6-.76Z"/><path class="cls-2" d="M27.33,29.74a5.48,5.48,0,0,0,1-.29c.25-.13.38-.58.67-.75s.64-.11,1-.16c.82-.1,1.75.07,2.38-.44.34-.28.49-.81.94-1,.28-.09.63.08.91,0,.51-.22,1.13-1.07,1.55-1.48a5.53,5.53,0,0,1,1.77-1.35c.42-.17,2.51-.67,2.88-.17s-1,.63-1.34,1-.27.65-.44.9c-.27.4-.75.66-1,1s-1.38,1.51-1,1.85.56-.15.79-.3c.47-.29.4-.28.89-.29a3,3,0,0,1,2.37,1c.81.63.7,1.65,1.33,2.36s.92,0,1.62-.07c.54-.06.59.33,1.06.46a2.38,2.38,0,0,0,1.1-.11c.37-.07.39.08.74-.11s.52-.58.89-.76a7.28,7.28,0,0,1,2.55-.74,11.5,11.5,0,0,0,2.4.2c1.13-.21,1.69-1,2.73-.28a1.56,1.56,0,0,0-.54,1.12c.08.6.27.44.75.59.32.1.63.21,1,.3a3,3,0,0,0,.51,0c.44,0,.34-.22.71-.36.56-.22,1.76-.34,2,.45s-.89,1.1-.8,1.83c.8,0,.6.57,1,1s.15.26.59.22.41-.28.66-.37c1.37-.53,2.57,1,.76,1a11.93,11.93,0,0,1-3.63-.08c-.35-.11-1.11-.67-1.41-.65-.57,0-.85,1-.45,1.39-1,0-1.68-1-2.58-1.41A2.32,2.32,0,0,0,52.12,35c-.5.2-.82.8-1.37,1-.42-.76-1.39.06-2,.1s-.5-.25-1,.07-.2.43-.45.8-1.1,1.35-1.53,1.18c-.63-.25.35-1.08.36-1.52a.7.7,0,0,0-.87.15c-.26.22-.18.61-.35.74a3.89,3.89,0,0,1-1,.21c-.23-.09-.28-.5-.51-.68-.39.31-.52,1-.76,1.5-.36.71-.6,1.46-1,2.12s-.73,1.47-1.57,1.19-.32-1.13.08-1.63c-.15-.41-.57-.29-.95-.3,0-.72.33-1.56.21-2.21-.17-.92-1-.38-1.47-.89-.2-.24-.13-.74-.4-1a2,2,0,0,0-1.08-.53,8.26,8.26,0,0,1-2.28-.67,19.34,19.34,0,0,0-4.39-1.52A5.41,5.41,0,0,1,28,32.37c-.41-.38-.54-1.13-.9-1.55s-.76-.16-.74-.73Z"/><path class="cls-2" d="M33,21c-.31-1,.73-1.27,1.47-1.61s1.8-1.26,2.65-1.12c-.1,1.1-1.18,1.27-2,1.69-.42.23-.53.55-.91.8s-.82.1-1.17.31"/></svg>