<svg id="Layer_1" data-name="Layer 1" xmlns="http://www.w3.org/2000/svg" viewBox="0 0 95.17 93.39"><defs><style>.cls-1{stroke:#231f20;stroke-miterlimit:10;}.cls-2{fill:#fff;}</style></defs><ellipse class="cls-1" cx="47.58" cy="46.7" rx="47.08" ry="46.2"/><path class="cls-2" d="M29.19,49.25H36.4a.66.66,0,0,0,.64-.77L36.81,47A3,3,0,0,0,35,44.62a4.16,4.16,0,0,1-2.23.68,3.81,3.81,0,0,1-2.22-.68A3,3,0,0,0,28.73,47l-.23,1.45a.7.7,0,0,0,.69.77Z"/><path class="cls-2" d="M35.59,41.31a2.82,2.82,0,1,1-2.82-2.82,2.81,2.81,0,0,1,2.82,2.82"/><path class="cls-2" d="M37.54,52.38H28a1.13,1.13,0,0,0-1.14,1.14v8.26A1.13,1.13,0,0,0,28,62.92h9.53a1.12,1.12,0,0,0,1.13-1.14V53.52A1.09,1.09,0,0,0,37.54,52.38Z"/><path class="cls-2" d="M44.85,42.71h7.22a.65.65,0,0,0,.63-.77l-.18-1.45a3.06,3.06,0,0,0-1.81-2.41,4.16,4.16,0,0,1-2.23.68,3.72,3.72,0,0,1-2.22-.68,3,3,0,0,0-1.82,2.41l-.23,1.45a.64.64,0,0,0,.64.77Z"/><path class="cls-2" d="M51.25,34.72a2.82,2.82,0,1,1-2.81-2.81,2.81,2.81,0,0,1,2.81,2.81"/><path class="cls-2" d="M53.2,45.85H43.67A1.12,1.12,0,0,0,42.53,47V61.83A1.12,1.12,0,0,0,43.67,63H53.2a1.12,1.12,0,0,0,1.14-1.13V47A1.12,1.12,0,0,0,53.2,45.85Z"/><path class="cls-2" d="M60.47,36.18h7.21a.67.67,0,0,0,.64-.77L68.14,34a3,3,0,0,0-1.82-2.4,4.21,4.21,0,0,1-2.22.68,3.84,3.84,0,0,1-2.23-.68A3,3,0,0,0,60.06,34l-.18,1.46a.62.62,0,0,0,.59.77Z"/><path class="cls-2" d="M66.91,28.19a2.82,2.82,0,1,1-2.81-2.82,2.81,2.81,0,0,1,2.81,2.82"/><path class="cls-2" d="M68.86,39.26H59.33A1.12,1.12,0,0,0,58.2,40.4V61.78a1.12,1.12,0,0,0,1.13,1.14h9.53A1.13,1.13,0,0,0,70,61.78V40.44a1.17,1.17,0,0,0-1.14-1.18Z"/></svg>