<?xml version="1.0" encoding="utf-8"?>
<!-- Generator: Adobe Illustrator 26.3.1, SVG Export Plug-In . SVG Version: 6.00 Build 0)  -->
<svg version="1.1" id="Layer_1" xmlns="http://www.w3.org/2000/svg" xmlns:xlink="http://www.w3.org/1999/xlink" x="0px" y="0px"
	 viewBox="0 0 95.2 93.4" style="enable-background:new 0 0 95.2 93.4;" xml:space="preserve">
<style type="text/css">
	.st0{stroke:#000000;stroke-miterlimit:10;}
	.st1{fill:#FFFFFF;}
</style>
<ellipse class="st0" cx="47.6" cy="46.7" rx="47.1" ry="46.2"/>
<g>
	<path class="st1" d="M24.3,61.9l25.3-25.3l4.6,4.6L28.8,66.4L24.3,61.9z"/>
	<path class="st1" d="M59.5,26.7l2.5-2.5l4.6,4.6l-2.5,2.5L59.5,26.7z"/>
	<path class="st1" d="M56.6,40.3L56.6,40.3l9.5,9.5l6.6-6.6l-9.5-9.5L52.8,23.3l-10.2-2.6l-2.8,2.9l10.6,10.6L56.6,40.3z"/>
	<path class="st1" d="M51.7,64.8C51.4,65,51,65,50.6,64.9l-6.1-2.4l-1,3.9l7.7,6.4l8.3-3.6l-4.4-6.6L51.7,64.8z"/>
	<path class="st1" d="M61.1,60.1l4.6,5.8l4.2-5.2L62.1,55L61.1,60.1z"/>
	<path class="st1" d="M52.2,58.9l3.9-1l0.7-1.5l-4.6-2.8L52.2,58.9z"/>
</g>
</svg>
