<svg id="Layer_1" data-name="Layer 1" xmlns="http://www.w3.org/2000/svg" viewBox="0 0 95.17 93.39"><defs><style>.cls-1{stroke:#231f20;stroke-miterlimit:10;}.cls-2{fill:#fff;}</style></defs><ellipse class="cls-1" cx="47.58" cy="46.7" rx="47.08" ry="46.2"/><path class="cls-2" d="M39.87,23.69a11.58,11.58,0,0,0-7.14,2.47,1.38,1.38,0,0,0-1.36-1.1A1.4,1.4,0,0,0,30,26.43v2.74a1.4,1.4,0,0,0,1.42,1.38h2.84a1.4,1.4,0,0,0,1.41-1.38A1.37,1.37,0,0,0,34.9,28a8.68,8.68,0,0,1,5-1.57,8.23,8.23,0,1,1-8.5,8.23,1.42,1.42,0,0,0-2.83,0,11.34,11.34,0,0,0,22.67,0,11.17,11.17,0,0,0-11.34-11Z"/><path class="cls-2" d="M39.87,36a1.39,1.39,0,0,0,1.42-1.37V30.55a1.42,1.42,0,0,0-2.83,0v2.74H35.62a1.37,1.37,0,1,0,0,2.74Z"/><path class="cls-2" d="M61.13,36a1.4,1.4,0,0,1,1.42,1.38V62.1h2.83V34.66A1.39,1.39,0,0,0,64,33.29H52.54a10.39,10.39,0,0,1,.09,1.37A10.28,10.28,0,0,1,52.54,36Z"/><path class="cls-2" d="M61.13,62.1V38.78a1.39,1.39,0,0,0-1.42-1.37H52.3a12.12,12.12,0,0,1-2.95,5.48h6.11a1.38,1.38,0,1,1,0,2.75H45.69a12.93,12.93,0,0,1-7.23,1.29V62.1Zm-17-13.72H55.46a1.37,1.37,0,1,1,0,2.74H44.13a1.37,1.37,0,1,1,0-2.74Zm0,5.49H55.46a1.37,1.37,0,1,1,0,2.74H44.13a1.37,1.37,0,1,1,0-2.74Z"/></svg>