<?xml version="1.0" encoding="utf-8"?>
<!-- Generator: Adobe Illustrator 26.3.1, SVG Export Plug-In . SVG Version: 6.00 Build 0)  -->
<svg version="1.1" id="Layer_1" xmlns="http://www.w3.org/2000/svg" xmlns:xlink="http://www.w3.org/1999/xlink" x="0px" y="0px"
	 viewBox="0 0 95.2 93.4" style="enable-background:new 0 0 95.2 93.4;" xml:space="preserve">
<style type="text/css">
	.st0{stroke:#000000;stroke-miterlimit:10;}
	.st1{fill:#FFFFFF;}
</style>
<ellipse class="st0" cx="47.6" cy="46.7" rx="47.1" ry="46.2"/>
<g>
	<path class="st1" d="M67.1,57.1c0-0.3-0.2-0.5-0.5-0.5h-2.4V32.1c0-2.7-2.2-4.9-4.8-4.9l-27,0h0h0h-0.1c-2.3,0-4.2,1.9-4.2,4.2V35
		c0,0.3,0.2,0.5,0.5,0.5h6.8v25.8c0,2.7,2.2,4.9,4.8,4.9l0.4,0c0,0,0,0,0,0h21.7c2.7,0,4.9-2.2,4.9-4.9L67.1,57.1z M59.3,28.2
		c2.1,0,3.9,1.8,3.9,3.9v0.5c-0.8,0.1-2.6,0.4-4.7,1.2c0,0,0,0-0.1,0c-0.3-0.1-0.6-0.2-1-0.3c-0.3-0.1-0.5,0.1-0.6,0.4
		c0,0.2,0,0.4,0.2,0.5c-3,1.4-6.5,3.7-8.9,7.6c0,0,0,0,0,0c-0.3,0-0.5,0.1-0.6,0.4c0,0.1,0,0.3,0.1,0.4c-4.1,6.7-9.6,8.8-11.4,9.3
		V31.1c0-1.2-0.5-2.3-1.4-3L59.3,28.2z M29,34.5v-3.1c0-1.8,1.5-3.2,3.2-3.2h0.1c1.7,0,3,1.3,3,3v3.4H29z M40.6,65.3l-0.4,0
		c-2.1,0-3.9-1.8-3.9-3.9v-8.3c1.6-0.4,7.8-2.5,12.3-10.1c0.1,0,0.2,0,0.3,0.1c0,0,0.1,0,0.1,0c0.2,0,0.4-0.2,0.5-0.4
		c0-0.2-0.1-0.5-0.3-0.5c4.3-6.7,12-8.3,14-8.6V36c-0.1,0-0.1-0.1-0.2-0.1c-0.2-0.1-0.5-0.1-0.7,0.1c-0.1,0.2-0.1,0.5,0.1,0.7
		c0.4,0.3,0.7,0.5,0.7,0.5v19.4h-1.7c0-0.1,0-0.3,0-0.5c0-0.3-0.3-0.5-0.5-0.5c-0.3,0-0.5,0.3-0.5,0.5c0,0.2,0,0.3,0,0.5l-15.6,0
		c-0.3,0-0.5,0.2-0.5,0.5v4.3C44.5,63.5,42.7,65.3,40.6,65.3L40.6,65.3z M66.1,61.3c0,2.2-1.8,3.9-3.9,3.9H43.5c1.2-0.9,2-2.3,2-3.9
		v-3.8h20.7L66.1,61.3z"/>
	<path class="st1" d="M59.1,50.6c0.1,0.3,0.3,0.6,0.4,0.9c0.1,0.2,0.3,0.3,0.5,0.3c0.1,0,0.1,0,0.2,0c0.3-0.1,0.4-0.4,0.3-0.6
		c-0.1-0.3-0.3-0.6-0.4-0.9c-0.1-0.2-0.4-0.3-0.6-0.2C59.1,50.1,59,50.4,59.1,50.6L59.1,50.6z"/>
	<path class="st1" d="M60.4,52.7c-0.3,0.1-0.4,0.3-0.3,0.6c0.1,0.3,0.2,0.6,0.2,0.9c0,0.2,0.3,0.4,0.5,0.4c0,0,0.1,0,0.1,0
		c0.3-0.1,0.4-0.3,0.4-0.6c-0.1-0.3-0.1-0.6-0.2-1C60.9,52.8,60.7,52.6,60.4,52.7L60.4,52.7z"/>
	<path class="st1" d="M42.2,43c0,0,0.1,0,0.1,0c0.3-0.1,0.6-0.1,0.9-0.2c0.3,0,0.5-0.3,0.4-0.6c0-0.3-0.3-0.5-0.6-0.4
		c-0.3,0-0.7,0.1-1,0.2c-0.3,0.1-0.4,0.3-0.4,0.6C41.8,42.8,42,43,42.2,43L42.2,43z"/>
	<path class="st1" d="M39.5,43.9c0.1,0,0.1,0,0.2-0.1c0.3-0.1,0.6-0.3,0.9-0.4c0.3-0.1,0.4-0.4,0.3-0.6c-0.1-0.3-0.4-0.4-0.6-0.3
		c-0.3,0.1-0.6,0.3-0.9,0.4c-0.2,0.1-0.3,0.4-0.2,0.7C39.1,43.8,39.3,43.9,39.5,43.9L39.5,43.9z"/>
	<path class="st1" d="M45.1,42.7L45.1,42.7l0.1,0c0.3,0,0.5,0,0.8,0c0,0,0,0,0,0c0.3,0,0.5-0.2,0.5-0.5c0-0.3-0.2-0.5-0.5-0.5
		c-0.3,0-0.6,0-0.9,0l-0.1,0c-0.3,0-0.5,0.2-0.5,0.5C44.6,42.4,44.9,42.7,45.1,42.7L45.1,42.7z"/>
	<path class="st1" d="M37,45.6c0.1,0,0.2,0,0.3-0.1c0.2-0.2,0.5-0.4,0.7-0.6c0.2-0.2,0.3-0.5,0.1-0.7c-0.2-0.2-0.5-0.3-0.7-0.1
		c-0.3,0.2-0.5,0.4-0.8,0.6c-0.2,0.2-0.2,0.5,0,0.7C36.8,45.5,36.9,45.6,37,45.6L37,45.6z"/>
	<path class="st1" d="M56.4,46.8c0.1,0.1,0.2,0.1,0.3,0.1c0.1,0,0.3,0,0.3-0.1c0.2-0.2,0.2-0.5,0-0.7c-0.2-0.2-0.5-0.5-0.7-0.7
		c-0.2-0.2-0.5-0.1-0.7,0.1c-0.2,0.2-0.1,0.5,0.1,0.7C55.9,46.4,56.2,46.6,56.4,46.8L56.4,46.8z"/>
	<path class="st1" d="M50.7,43.5c0.3,0.1,0.6,0.2,0.9,0.3c0.1,0,0.1,0,0.2,0c0.2,0,0.4-0.1,0.5-0.3c0.1-0.3,0-0.5-0.3-0.6
		c-0.3-0.1-0.6-0.2-0.9-0.3c-0.3-0.1-0.5,0.1-0.6,0.3C50.3,43.2,50.5,43.4,50.7,43.5L50.7,43.5z"/>
	<path class="st1" d="M53.4,44.6c0.3,0.1,0.6,0.3,0.8,0.5c0.1,0,0.2,0.1,0.3,0.1c0.2,0,0.3-0.1,0.4-0.2c0.1-0.2,0.1-0.5-0.2-0.7
		c-0.3-0.2-0.6-0.3-0.9-0.5c-0.2-0.1-0.5,0-0.7,0.2C53,44.2,53.1,44.5,53.4,44.6L53.4,44.6z"/>
	<path class="st1" d="M58.2,49c0.1,0.1,0.3,0.2,0.4,0.2c0.1,0,0.2,0,0.3-0.1c0.2-0.1,0.3-0.4,0.1-0.7c-0.2-0.3-0.4-0.6-0.6-0.8
		c-0.2-0.2-0.5-0.3-0.7-0.1c-0.2,0.2-0.3,0.5-0.1,0.7C57.8,48.5,58,48.7,58.2,49L58.2,49z"/>
	<path class="st1" d="M39.9,35.6c0.3,0.1,0.6,0.1,1,0.1c0,0,0,0,0,0c0.2,0,0.5-0.2,0.5-0.4c0-0.3-0.2-0.5-0.4-0.5
		c-0.3,0-0.6-0.1-0.9-0.1c-0.3,0-0.5,0.1-0.6,0.4C39.5,35.3,39.7,35.6,39.9,35.6L39.9,35.6z"/>
	<path class="st1" d="M60,35.3c0.3,0.1,0.6,0.3,0.9,0.4c0.1,0,0.1,0,0.2,0c0.2,0,0.4-0.1,0.4-0.3c0.1-0.2,0-0.5-0.2-0.7
		c-0.3-0.1-0.6-0.3-0.9-0.4c-0.2-0.1-0.5,0-0.6,0.3C59.6,34.9,59.7,35.2,60,35.3L60,35.3z"/>
	<path class="st1" d="M37,34.8c0.3,0.1,0.6,0.2,1,0.3c0,0,0.1,0,0.1,0c0.2,0,0.4-0.1,0.5-0.3c0.1-0.3-0.1-0.5-0.3-0.6
		c-0.3-0.1-0.6-0.2-0.9-0.3c-0.3-0.1-0.5,0-0.6,0.3C36.6,34.5,36.8,34.7,37,34.8L37,34.8z"/>
	<path class="st1" d="M42.9,35.8L42.9,35.8c0.3,0,0.7,0,1,0c0.3,0,0.5-0.3,0.5-0.5c0-0.3-0.2-0.5-0.5-0.5c-0.3,0-0.6,0-1,0
		c-0.3,0-0.5,0.2-0.5,0.5C42.4,35.6,42.7,35.8,42.9,35.8L42.9,35.8z"/>
	<path class="st1" d="M51.5,34.2C51.6,34.2,51.6,34.2,51.5,34.2c0.4-0.1,0.7-0.1,1-0.1c0.3,0,0.5-0.3,0.4-0.5c0-0.3-0.3-0.5-0.5-0.4
		c-0.3,0-0.7,0.1-1,0.1c-0.3,0-0.5,0.3-0.4,0.6C51.1,34,51.3,34.2,51.5,34.2L51.5,34.2z"/>
	<path class="st1" d="M48.7,34.9c0,0,0.1,0,0.1,0c0.1,0,0.2-0.1,0.3-0.1c0.2-0.1,0.4-0.1,0.6-0.2c0.3-0.1,0.4-0.3,0.3-0.6
		c-0.1-0.3-0.3-0.4-0.6-0.3c-0.2,0.1-0.4,0.1-0.6,0.2c-0.1,0-0.2,0.1-0.3,0.1c-0.3,0.1-0.4,0.4-0.3,0.6
		C48.3,34.8,48.5,34.9,48.7,34.9L48.7,34.9z"/>
	<path class="st1" d="M54.4,34.1c0.3,0,0.6,0,0.9,0.1c0,0,0,0,0.1,0c0.2,0,0.5-0.2,0.5-0.4c0-0.3-0.2-0.5-0.4-0.5
		c-0.3,0-0.7-0.1-1-0.1c-0.3,0-0.5,0.2-0.5,0.5C54,33.8,54.2,34,54.4,34.1L54.4,34.1z"/>
	<path class="st1" d="M45.9,35.6C45.9,35.6,45.9,35.6,45.9,35.6c0.4-0.1,0.7-0.1,1.1-0.2c0.3-0.1,0.4-0.3,0.4-0.6
		c-0.1-0.3-0.3-0.4-0.6-0.4c-0.3,0.1-0.6,0.1-0.9,0.2c-0.3,0-0.4,0.3-0.4,0.6C45.4,35.4,45.6,35.6,45.9,35.6L45.9,35.6z"/>
</g>
</svg>
