<svg id="Layer_1" data-name="Layer 1" xmlns="http://www.w3.org/2000/svg" viewBox="0 0 95.17 93.39"><defs><style>.cls-1{stroke:#231f20;stroke-miterlimit:10;}.cls-2{fill:#fff;}</style></defs><ellipse class="cls-1" cx="47.58" cy="46.7" rx="47.08" ry="46.2"/><path class="cls-2" d="M47.59,52.1a1.82,1.82,0,0,1-.76-.16L23.41,41.13a1.81,1.81,0,0,1,0-3.28L46.83,27a1.81,1.81,0,0,1,1.51,0L71.76,37.85a1.81,1.81,0,0,1,0,3.28L48.34,51.94a1.78,1.78,0,0,1-.75.16ZM28.46,39.49l19.13,8.83,19.12-8.83L47.59,30.66Z"/><path class="cls-2" d="M47.59,59.31a1.83,1.83,0,0,1-.76-.17L23.41,48.33a1.8,1.8,0,0,1,1.51-3.27L47.59,55.52,70.25,45.06h0a1.82,1.82,0,0,1,1.8.17,1.81,1.81,0,0,1-.29,3.11L48.34,59.15a1.94,1.94,0,0,1-.75.16Z"/><path class="cls-2" d="M47.59,66.51a1.82,1.82,0,0,1-.76-.16L23.41,55.54a1.79,1.79,0,0,1-1-1.47,1.8,1.8,0,0,1,2.55-1.8L47.59,62.73,70.25,52.27h0a1.8,1.8,0,0,1,2.55,1.8,1.79,1.79,0,0,1-1,1.47L48.34,66.35h0a1.64,1.64,0,0,1-.75.16Z"/></svg>