<svg id="Layer_1" data-name="Layer 1" xmlns="http://www.w3.org/2000/svg" viewBox="0 0 95.17 93.39"><defs><style>.cls-1{stroke:#231f20;stroke-miterlimit:10;}.cls-2{fill:#fff;}</style></defs><ellipse class="cls-1" cx="47.58" cy="46.7" rx="47.08" ry="46.2"/><path class="cls-2" d="M72.29,56.47,53.61,24.07a1.65,1.65,0,0,0-1.43-.81,1.72,1.72,0,0,0-1.43.81L40.88,41.2l-3.16-5.53a1.65,1.65,0,0,0-1.43-.8,1.73,1.73,0,0,0-1.43.8l-12,20.8a1.51,1.51,0,0,0,0,1.61,1.64,1.64,0,0,0,1.43.81H70.86a1.72,1.72,0,0,0,1.43-.81,1.51,1.51,0,0,0,0-1.61Z"/></svg>