<svg id="Layer_1" data-name="Layer 1" xmlns="http://www.w3.org/2000/svg" viewBox="0 0 287.36 58.06"><defs><style>.cls-1{fill:#ffcd00;}</style></defs><path class="cls-1" d="M25.63,51.06c0,1.55.26,1.72,2.45,1.72s2.44-.17,2.44-1.72c0-1.1-.14-1.44-1-1.54.75-.11.87-.46.87-1.38,0-1.47-.24-1.71-2.29-1.71s-2.31.24-2.31,1.71c0,.92.13,1.27.88,1.38C25.77,49.62,25.63,50,25.63,51.06Zm2.45-3.73c1,0,1.1.1,1.1.86s-.13.88-1.1.88S27,49,27,48.19,27.1,47.33,28.08,47.33Zm0,2.65c1.11,0,1.24.1,1.24,1s-.13.93-1.24.93-1.25-.1-1.25-.93S27,50,28.08,50Z"/><path class="cls-1" d="M15.27,51.06c0,1.55.26,1.72,2.45,1.72s2.44-.17,2.44-1.72c0-1.1-.14-1.44-1-1.54.74-.11.86-.46.86-1.38,0-1.47-.24-1.71-2.29-1.71s-2.31.24-2.31,1.71c0,.92.13,1.27.88,1.38C15.41,49.62,15.27,50,15.27,51.06Zm2.45-3.73c1,0,1.1.1,1.1.86s-.13.88-1.1.88-1.1-.09-1.1-.88S16.74,47.33,17.72,47.33Zm0,2.65c1.11,0,1.24.1,1.24,1s-.13.93-1.24.93-1.25-.1-1.25-.93S16.61,50,17.72,50Z"/><path class="cls-1" d="M38.38,51.88c-1.07,0-1.17-.1-1.17-.92L36,51c0,1.54.22,1.74,2.36,1.75s2.35-.2,2.35-1.87S40.46,49,38.52,49a5.1,5.1,0,0,0-1.21.1l0-1.65h2.19l.07.71h1V46.51H36.23L36.17,50a18,18,0,0,1,2.07-.11c1.2,0,1.3.23,1.3,1.08S39.39,51.88,38.38,51.88Z"/><path class="cls-1" d="M35.08,7.14c.08-.15.21-.34.33-.53-.08-.21-.23-.54-.31-.56a3,3,0,0,0-.72,1.06A3.19,3.19,0,0,1,35.08,7.14Z"/><polygon class="cls-1" points="7.68 47.54 7.68 51.8 6.28 51.85 6.28 52.7 10.15 52.7 10.15 51.85 8.88 51.8 8.88 46.51 8.36 46.51 8.35 46.52 6.16 46.85 6.29 47.72 7.68 47.54"/><path class="cls-1" d="M0,0V58.06H46.89V0ZM1.75,1.91H45.14V37.77L44.57,37,42.93,35.6l-2.46-1.42L39.26,34l-1.13-.22A5.3,5.3,0,0,0,36.59,33a4,4,0,0,0-1.2.55l-.93,0-.31.19c-.1-.38-.19-.8-.19-.81-.09-.49-.21-1.12-.21-1.23s-.12-.91-.13-1.26a9.11,9.11,0,0,0-.27-1.28l-.06-3.9a4.11,4.11,0,0,1-1.23.86,19.23,19.23,0,0,0-.61,5.47c.09.25.17.45.22.56s.46,1.08.68,1.67h0c.06.16.17.5.23.71l-.11.05-.22-.43c-.19-.34-1.09-.17-1.26-.3s-.17-.41-.18-.57,0-.06,0-.09h0l0-.26,0-.9a44.39,44.39,0,0,1,.61-7.37h0v0h0l0-.09s1.48.05,3.12-1.92a11,11,0,0,0,1.26-2.3,2.77,2.77,0,0,0,.12-.41,2.18,2.18,0,0,0-.64-1,4,4,0,0,1,.79.1,2,2,0,0,0-.08-.66,1.9,1.9,0,0,1,.71-1.66c.31-.21.29-.76.29-.93s-.1-.34-.14-.6h0a4.06,4.06,0,0,1-.18-1.72,1,1,0,0,0,.83,1.05h.21c.34,0,.71.11.92.14.48.07.7-.66.7-.66s.28-.24.61-.56.48-.45.4-.85-2.16-2-2.16-2h0a10.35,10.35,0,0,0-1-.7s.31-.25.55-.1,0,.24.48.65a2,2,0,0,0-.05-.76,8.4,8.4,0,0,0-1.36-1.46l-.32.65.21-2a3.7,3.7,0,0,0-.08-1.2c-.13-.32-.45,0-.73.41h0a10.69,10.69,0,0,0-.65,1.36s-.51,0-1,0h0a3.1,3.1,0,0,0-.71,0h-.07a1.57,1.57,0,0,0-.84.37c-.58.54-2,2.4-2,2.4s-1.43,1.52-1.72,1.7a4.25,4.25,0,0,1-1.51.91,2.81,2.81,0,0,0-.2.57,1.35,1.35,0,0,0,.19.87l-.56-.35c-1,.68-3.54,2.11-3.79,2.28a6.88,6.88,0,0,1-2.45,1.18s-6.3,1.33-6.62,1.89a3.74,3.74,0,0,0-2.11,2.06c-.29.64-1,2.76-1.85,4.23s-3.54,3-3.93,3.32-.94.24-.23,1,2.52.45,3.82,0l.17-.06a1.17,1.17,0,0,1,.25-.12,5,5,0,0,0,.52-.33,6,6,0,0,0,1.22-2c-.05-.08-.09-.17-.14-.27a2,2,0,0,1,.27-2,2.6,2.6,0,0,0,.87,2.37.89.89,0,0,1,.42.55A3.21,3.21,0,0,1,12,30.83c-.52.45-.55.53-.5,1,0,0,1.46,4.39,1,6l-.86.26a16.28,16.28,0,0,0-.1-4.93c0,.47-.07,1-.13,1.53a13.79,13.79,0,0,1-.58,2.76,1.35,1.35,0,0,0,0,.82l-1.1.34s-1.53.53-1.75.59a8,8,0,0,1-1.11.05s-1.42,0-1.68.06a9.3,9.3,0,0,0-1.35.59l-.95,0-1.18.4ZM29.19,35.34l-.89.39-2.64.74-2.14.29a5.44,5.44,0,0,1-2-.18,4.93,4.93,0,0,0-2-.15c-.13,0-1.16.3-1.92.54l-.74.25a4.84,4.84,0,0,0-2.37-.85,1.47,1.47,0,0,1-.16-.54,31.8,31.8,0,0,1-.13-3.64c.09-.61,1.61-1.58,2.92-2.69A5,5,0,0,0,18.75,27a2.77,2.77,0,0,1,.77-.86,4,4,0,0,1,2.42.31c.85.35,5.43.07,5.43.07a35.29,35.29,0,0,0,.91,4.7c.15.54.42,1.7.61,2.47S29.17,35.22,29.19,35.34Zm16,20.95H1.75V42.78H45.14Z"/><path class="cls-1" d="M236.58,25.23h-3.42l-.29-4.18h-3.52l-1.08.07V37.49l2.73.16v3.16h-9.86V37.65l2.69-.16V21.12l-1.05-.07h-3.45l-.3,4.18h-3.42V17.8h21Z"/><path class="cls-1" d="M247.42,35.94l3.54-.15c0,4.14-1,5.29-6.83,5.29S237,39.72,237,32.7s1.15-8.35,7.11-8.35S251,25.59,251,32.94c0,.73-.18.91-.87.91h-9.41c.09,3.9.63,4.42,3.42,4.42S247.42,37.78,247.42,35.94Zm-6.71-4.48h6.68c-.09-3.81-.72-4.32-3.32-4.32S240.8,27.65,240.71,31.46Z"/><path class="cls-1" d="M267,29.86l-3.6.18c0-2.09-.52-2.72-3.27-2.72-3,0-3.42.66-3.42,5.38s.43,5.39,3.42,5.39c2.78,0,3.27-.52,3.27-2.61l3.6-.15c0,4.63-.94,5.75-6.87,5.75s-7.17-1.36-7.17-8.38,1.15-8.35,7.17-8.35C266,24.35,267,25.47,267,29.86Z"/><path class="cls-1" d="M287.36,40.81h-8.47V38.09l2.3-.16V30.28c0-2.06-.61-2.66-2.67-2.66a8.28,8.28,0,0,0-4,1.18v9.13l2.3.16v2.72h-8.5V38.09l2.3-.16V21l-2.3-.13V18.12h6.2v8.59a8.58,8.58,0,0,1,6-2.36c3.39,0,4.6,1.09,4.6,4.93v8.65l2.27.16Z"/><path class="cls-1" d="M93.76,40.81H84.27V37.65l2.44-.17V21.74l-6,19.07H76.27l-6.1-18.88V37.48l2.51.17v3.16H63.22V37.65l2.7-.17V21.08l-2.6-.17V17.75H73.4L78,32.8c.27.86.46,1.75.66,2.61.23-.86.43-1.75.69-2.61l4.55-15h9.81v3.16l-2.66.17v16.4l2.7.17Z"/><path class="cls-1" d="M104.5,40.81H96V38.09l2.33-.16V27.5L96,27.38V24.62h6.2V37.93l2.27.16Z"/><path class="cls-1" d="M120.18,29.86l-3.6.18c0-2.09-.51-2.72-3.27-2.72-3,0-3.42.66-3.42,5.38s.43,5.39,3.42,5.39c2.79,0,3.27-.52,3.27-2.61l3.6-.15c0,4.63-.94,5.75-6.87,5.75s-7.17-1.36-7.17-8.38,1.15-8.35,7.17-8.35C119.15,24.35,120.18,25.47,120.18,29.86Z"/><path class="cls-1" d="M141.43,40.81h-8.61V38l2.33-.15V30.11c0-2.09-.61-2.71-2.7-2.71a8.46,8.46,0,0,0-4.09,1.2v9.29l2.34.15v2.77h-8.64V38l2.33-.15V20.67l-2.33-.12v-2.8h6.3v8.73a8.74,8.74,0,0,1,6.09-2.4c3.44,0,4.67,1.11,4.67,5v8.8l2.31.15Z"/><path class="cls-1" d="M151.91,40.81h-8.47V38.09l2.33-.16V27.5l-2.33-.12V24.62h6.2V37.93l2.27.16Z"/><path class="cls-1" d="M168.59,27.5V40.35c0,5.39-1.27,6.6-7.47,6.6-5.72,0-6.78-1.12-6.78-5.05l3.51-.15c0,1.84.52,2.42,3.21,2.42,3.15,0,3.63-.94,3.63-3.82V38a5.69,5.69,0,0,1-5.23,2.36c-4.21,0-5.72-1.33-5.72-8s1.51-8,5.75-8c2.45,0,3.72.43,5.2,2.09V24.59h3.9v0h2.3v2.73Zm-3.9,8.68V28.41a6.5,6.5,0,0,0-3.87-.85c-2.75,0-3.39.63-3.39,4.78s.64,4.78,3.42,4.78A6.13,6.13,0,0,0,164.69,36.18Z"/><path class="cls-1" d="M189.18,40.81h-5.93l-.18-2.36a7.45,7.45,0,0,1-5.78,2.63c-3.54,0-5-2-5-4.69,0-2.84,1.15-5,8.2-5H183v-.94c0-2.51-.48-3.32-3.3-3.32-2.6,0-3.08.6-3.08,2.26l-3.6.19c0-4,1.18-5.27,6.83-5.27s7,1.27,7,6.08v7.5l2.3.13Zm-10.71-2.63A5.84,5.84,0,0,0,183,36.09V33.64h-2c-4.32,0-5,1.06-5,2.51C176,37.24,176.66,38.18,178.47,38.18Z"/><path class="cls-1" d="M210.41,40.81h-8.47V38.09l2.3-.16V30.28c0-2.06-.61-2.66-2.66-2.66a8.32,8.32,0,0,0-4,1.18v9.13l2.3.16v2.72h-8.5V38.09l2.3-.16V27.5l-2.3-.15V24.62h6.2v2.09a8.6,8.6,0,0,1,6-2.36c3.39,0,4.6,1.09,4.6,4.93v8.65l2.27.16Z"/><path class="cls-1" d="M97.82,20.05c0-1.75.3-2.06,2.39-2.06s2.3.31,2.3,2.06-.31,2.06-2.3,2.06S97.82,21.84,97.82,20.05Z"/><path class="cls-1" d="M145.22,20.05c0-1.75.31-2.06,2.39-2.06s2.3.31,2.3,2.06-.3,2.06-2.3,2.06S145.22,21.84,145.22,20.05Z"/></svg>