<svg id="Layer_1" data-name="Layer 1" xmlns="http://www.w3.org/2000/svg" viewBox="0 0 95.17 93.39"><defs><style>.cls-1{stroke:#231f20;stroke-miterlimit:10;}.cls-2{fill:#fff;}</style></defs><ellipse class="cls-1" cx="47.58" cy="46.7" rx="47.08" ry="46.2"/><path class="cls-2" d="M60.76,45.28A11.16,11.16,0,1,0,49.61,56.44,11.17,11.17,0,0,0,60.76,45.28ZM59,44.43v1.71H55.61V44.43ZM55.67,38l1.21,1.22-2.42,2.42-1.21-1.21Zm-6.92-2.15h1.71v3.43H48.75ZM40.17,46.14V44.43H43.6v1.71Zm3.37,6.42-1.21-1.21,2.42-2.43L46,50.14Zm1.21-10.92-2.42-2.42L43.54,38,46,40.43Zm5.71,13.08H48.75V51.29h1.71Zm-.85-6A3.44,3.44,0,1,1,53,45.28,3.44,3.44,0,0,1,49.61,48.72Zm6.06,3.84-2.42-2.42,1.21-1.22,2.42,2.43Z"/><path class="cls-2" d="M37,47.86H24.86A24.94,24.94,0,0,0,47,70V57.89a12.89,12.89,0,0,1-10-10Zm4,8.58c0,1.71,1.71,1.71,1.71,4.29s-2.3,3.43-4.29,3.43c-1.71,0-4.29-.86-4.29-3.43s2.58-4.29,2.58-6c0,0,1.71,0,1.71,2.91v.52c0-2.08,2.58-1.71,2.58-1.71Z"/><path class="cls-2" d="M62.21,42.71H74.35A25,25,0,0,0,52.18,20.54V32.68a12.89,12.89,0,0,1,10,10ZM60.6,31.55l2.73-3.42,2.74,3.42a3.18,3.18,0,0,1-2.48,5.16h-.51a3.17,3.17,0,0,1-2.48-5.16Z"/><path class="cls-2" d="M28.48,39.28H35V36.71H32.45A3.44,3.44,0,0,1,29,33.27h3.44A3.41,3.41,0,0,1,35,34.46V31.88h0a5.15,5.15,0,0,1,5.12-4.61h1.71a5.15,5.15,0,0,1-5.14,5.15v6.86h1.49A12.92,12.92,0,0,1,47,32.67V20.54A25,25,0,0,0,24.86,42.71h1.91Z"/><path class="cls-2" d="M28.69,42.71H37A12.54,12.54,0,0,1,37.49,41H29.55Z"/><path class="cls-2" d="M52.18,57.89V70A25,25,0,0,0,74.35,47.86H62.21a12.89,12.89,0,0,1-10,10Zm3.43,3.69H53.89V59.87h1.72Zm10.3,0H57.33V59.87h8.58a.86.86,0,1,0-.86-.86H63.33a2.58,2.58,0,1,1,2.58,2.57ZM62.47,53h6.87a.86.86,0,1,0-.86-.86H66.76a2.58,2.58,0,1,1,2.58,2.57H62.47Z"/></svg>