<svg id="Layer_1" data-name="Layer 1" xmlns="http://www.w3.org/2000/svg" viewBox="0 0 95.17 93.39"><defs><style>.cls-1{fill:#231f20;}.cls-2{fill:none;}.cls-3{fill:#fff;}</style></defs><title>recreation</title><path d="M94.67,46.7c0,25.51-21.08,46.19-47.09,46.19S.5,72.21.5,46.7,21.58.5,47.58.5,94.67,21.18,94.67,46.7" transform="translate(0 0)"/><path class="cls-1" d="M47.58,93.39C21.35,93.39,0,72.44,0,46.7S21.35,0,47.58,0,95.17,21,95.17,46.7,73.82,93.39,47.58,93.39ZM47.58,1C21.9,1,1,21.5,1,46.7S21.9,92.39,47.58,92.39,94.17,71.89,94.17,46.7,73.27,1,47.58,1Z" transform="translate(0 0)"/><rect class="cls-2" width="95.17" height="93.39"/><path class="cls-3" d="M54.74,27a4.47,4.47,0,1,1-4.47-4.46A4.46,4.46,0,0,1,54.74,27" transform="translate(0 0)"/><path class="cls-3" d="M66.31,42.49H65.5V40.71a1,1,0,0,0-2,0v1.78H58.43s-4.61-6.77-4.8-7.18A2.29,2.29,0,0,0,51.91,34l-4.58-.81a2.32,2.32,0,0,0-2.7,1.89l-2,11.46c-.11.59.32,10,.32,10l-6.67,7.19a1.94,1.94,0,0,0,1.43,3.26,1.93,1.93,0,0,0,1.42-.62l7.18-7.76a1.91,1.91,0,0,0,.52-1.32l1.06-7.43,5.06,6.85,2,8.77a1.92,1.92,0,0,0,1.89,1.51,2.09,2.09,0,0,0,.43,0,1.94,1.94,0,0,0,1.46-2.33l-2.07-9.05a2.14,2.14,0,0,0-.2-.53L52,47.08l1-5.79,3.67,3.83a1.58,1.58,0,0,0,1.12.48h5.72V65.93a1,1,0,0,0,2,0V45.59h.8a1.55,1.55,0,0,0,0-3.1Z" transform="translate(0 0)"/><path class="cls-3" d="M40.61,48.38a11.52,11.52,0,0,1,0-2.22l2-11.46a4.13,4.13,0,0,1,.48-1.34c-.87-.3-3.71-1-5.15,2.88,0,0-1.79.19-2.44,3.33s-.89,4.16-1.13,5.17-.15,2.2,1.4,2.56l4.8,1.08Z" transform="translate(0 0)"/></svg>