<svg id="Layer_1" data-name="Layer 1" xmlns="http://www.w3.org/2000/svg" viewBox="0 0 95.17 93.39"><defs><style>.cls-1{stroke:#231f20;stroke-miterlimit:10;}.cls-2{fill:#fff;}</style></defs><ellipse class="cls-1" cx="47.58" cy="46.7" rx="47.08" ry="46.2"/><path class="cls-2" d="M55.48,42a4.19,4.19,0,0,0-4-4.16,4.15,4.15,0,0,0-3.9-2.65,4.2,4.2,0,0,0-3.89,2.65,4.14,4.14,0,0,0-2.13,7.64,3.2,3.2,0,0,0-.21,1.09,3.31,3.31,0,0,0,3.32,3.32H46l-.42,7.69a.73.73,0,0,0,.73.78h2.49a.73.73,0,0,0,.73-.78L49,49.9h1.4a3.31,3.31,0,0,0,3.32-3.32,2.77,2.77,0,0,0-.2-1.09,4.09,4.09,0,0,0,2-3.48Z"/><path class="cls-2" d="M36.78,48.08a1.61,1.61,0,0,0-.41-2.28,1.63,1.63,0,0,0-2.29.41L31.9,49.28A15.91,15.91,0,0,1,60.36,37.13l0-.06a4.73,4.73,0,0,1,2.7-1.87,19.87,19.87,0,0,0-4.46-4.36,19.31,19.31,0,0,0-30,19.06l-3.12-2.18a1.64,1.64,0,0,0-1.87,2.7L30,54.89a1.57,1.57,0,0,0,1.25.26,1.63,1.63,0,0,0,1.09-.68Z"/><path class="cls-2" d="M71.53,42.94l-6.39-4.46a1.62,1.62,0,0,0-2.29.41l-4.46,6.39a1.64,1.64,0,0,0,2.7,1.87L63.27,44A15.88,15.88,0,0,1,50.34,62.31a16,16,0,0,1-11.9-2.59,14.87,14.87,0,0,1-3.63-3.53l-.05.05a4.9,4.9,0,0,1-2.7,1.87,18.87,18.87,0,0,0,4.46,4.36,19.2,19.2,0,0,0,30-19l3.12,2.18a1.51,1.51,0,0,0,1.24.26,1.63,1.63,0,0,0,1.09-.67,1.67,1.67,0,0,0-.41-2.34Z"/></svg>