<?xml version="1.0" encoding="utf-8"?>
<!-- Generator: Adobe Illustrator 26.3.1, SVG Export Plug-In . SVG Version: 6.00 Build 0)  -->
<svg version="1.1" id="Layer_1" xmlns="http://www.w3.org/2000/svg" xmlns:xlink="http://www.w3.org/1999/xlink" x="0px" y="0px"
	 viewBox="0 0 95.2 93.4" style="enable-background:new 0 0 95.2 93.4;" xml:space="preserve">
<style type="text/css">
	.st0{stroke:#000000;stroke-miterlimit:10;}
	.st1{fill:#FFFFFF;}
</style>
<ellipse class="st0" cx="47.6" cy="46.7" rx="47.1" ry="46.2"/>
<g>
	<path class="st1" d="M46.5,67c4,0,7.9-1.2,11.2-3.5c3.3-2.3,5.8-5.5,7.3-9.2l0,0l0,0c0.6-1.6,1-3.2,1.2-4.9
		c0.1-0.5-0.3-0.9-0.7-0.9c-0.5-0.1-0.9,0.3-0.9,0.7c-0.2,1.3-0.5,2.6-0.9,3.9H53.3c-0.8,0-1.6-0.4-2-1.2c-0.4-0.7-0.4-1.6,0-2.3
		c0.4-0.7,1.2-1.2,2-1.2h1.5h0c1.1,0,2.1-0.4,2.8-1.2c0.8-0.8,1.2-1.8,1.2-2.8c0-0.5,0.2-1,0.4-1.4c0.3-0.4,0.2-0.9-0.2-1.2
		c-0.4-0.3-0.9-0.2-1.2,0.2c-0.5,0.7-0.8,1.5-0.8,2.4c0,0.6-0.2,1.2-0.7,1.7c-0.4,0.4-1,0.7-1.6,0.7h-1.5c-1.1,0-2.1,0.4-2.8,1.2
		c-0.8,0.8-1.2,1.8-1.2,2.8c0,1.1,0.4,2.1,1.2,2.8c0.8,0.8,1.8,1.2,2.8,1.2h9.6c-1.5,3.1-3.8,5.8-6.7,7.6c-2.9,1.9-6.3,2.8-9.7,2.9
		c-4,0-7.9-1.3-11.1-3.8h8.3c1.1,0,2.1-0.4,2.8-1.2c0.8-0.8,1.2-1.8,1.2-2.8c0-1.1-0.4-2.1-1.2-2.8c-0.8-0.8-1.8-1.2-2.8-1.2h-1.5
		c-0.6,0-1.2-0.2-1.6-0.7c-0.4-0.4-0.7-1-0.7-1.6c0-1.1-0.4-2.1-1.2-2.8c-0.8-0.8-1.8-1.2-2.8-1.2h0c-0.8,0-1.6-0.5-2-1.2
		c-0.4-0.7-0.4-1.6,0-2.3c0.4-0.7,1.2-1.2,2-1.2h6.5c1.1,0,2.1-0.4,2.8-1.2c0.6-0.6,1-1.4,1.1-2.3c0,0,0,0,0,0c0-0.2,0-0.4,0-0.5
		c0-0.3,0-0.6-0.1-0.9c0,0,0,0,0-0.1v0c-0.2-0.9-0.7-1.6-1.4-2.2c-0.7-0.5-1.6-0.8-2.5-0.8h-8.7c2.9-2.9,6.7-4.8,10.8-5.2
		c0.2,0,0.4-0.1,0.6-0.3c0.1-0.2,0.2-0.4,0.2-0.6c0-0.2-0.1-0.4-0.3-0.6c-0.2-0.1-0.4-0.2-0.6-0.2c-5,0.6-9.6,3.1-12.9,6.9
		c-3.3,3.9-4.9,8.8-4.6,13.9c0.3,5.1,2.5,9.8,6.2,13.3C36.5,65,41.4,67,46.5,67L46.5,67z M32.1,36h10.2c0.5,0,1,0.2,1.4,0.5
		c0.4,0.3,0.7,0.7,0.8,1.2c0,0,0,0.1,0,0.1c0.1,0.3,0.1,0.6,0,0.9c0,0,0,0,0,0.1c-0.1,0.5-0.3,0.9-0.7,1.3c-0.4,0.4-1,0.7-1.6,0.7
		h-6.5c-1.4,0-2.7,0.8-3.4,2c-0.7,1.2-0.7,2.8,0,4c0.7,1.2,2,2,3.4,2h0c0.6,0,1.2,0.2,1.7,0.7c0.4,0.4,0.7,1,0.7,1.7
		c0,1.1,0.4,2.1,1.2,2.8c0.8,0.8,1.8,1.2,2.8,1.2h1.5h0c0.6,0,1.2,0.2,1.6,0.7c0.4,0.4,0.7,1,0.7,1.6c0,0.6-0.2,1.2-0.7,1.6
		c-0.4,0.4-1,0.7-1.6,0.7H33.5c-3.1-3.1-4.9-7.3-5.1-11.6C28.1,43.8,29.4,39.5,32.1,36L32.1,36z"/>
	<path class="st1" d="M43.6,24.7l2.6,2.6l3.1,3.1l2.6,2.6c-0.6,0.9-0.7,1.9-0.5,2.9c-0.2,0-0.3,0-0.5,0c-1.3,0-2.5,0.5-3.4,1.4
		c-0.3,0.3-0.3,0.9,0,1.2l1.2,1.2v0c-0.6,0.3-1,0.9-1.1,1.5c-0.1,0.7,0,1.3,0.4,1.9c0.4,0.5,1,0.9,1.7,0.9c0.7,0,1.3-0.2,1.8-0.7
		c0.1-0.2,0.3-0.3,0.4-0.5l1.2,1.2l0,0c0.3,0.3,0.9,0.3,1.2,0c0.9-0.9,1.4-2.1,1.4-3.4c0-0.2,0-0.3,0-0.5c1,0.2,2.1,0,2.9-0.5
		l2.6,2.6l3.1,3.1l2.6,2.6l0,0c0.3,0.3,0.7,0.5,1.1,0.5s0.8-0.2,1.1-0.5l2.6-2.6l2.6-2.6h0c0.3-0.3,0.5-0.7,0.5-1.1
		c0-0.4-0.2-0.8-0.5-1.1l-2.6-2.6l-3.1-3.1l-2.6-2.6c0.2-0.4,0.3-0.8,0.2-1.3c-0.1-0.4-0.3-0.8-0.6-1.2l-3.8-3.8
		c-0.3-0.3-0.7-0.5-1.2-0.6c-0.4-0.1-0.9,0-1.3,0.2L56.8,23l-3.1-3.1l-2.6-2.6c-0.3-0.3-0.7-0.5-1.1-0.5s-0.8,0.2-1.1,0.5l-2.6,2.6
		l-2.6,2.6c-0.3,0.3-0.5,0.7-0.5,1.1S43.3,24.4,43.6,24.7L43.6,24.7z M56.2,24.8l1.9,2l-2,2l-1.9-2l1-1L56.2,24.8z M54.1,24.6l-1,1
		l-1-1l-1-1l2-2l2,2L54.1,24.6z M49,25.8l1-1l2,2l-2,2l-2-2L49,25.8z M53.1,28l2,2l-2,1.9l-2-2L53.1,28z M53.1,38.7
		c0.5,0.5,0.8,1.1,0.9,1.8c0.1,0.7,0,1.4-0.4,1.9l-2.1-2.1l0,0l0,0l-2.1-2.1c0.6-0.3,1.3-0.5,1.9-0.4C52,37.9,52.6,38.2,53.1,38.7
		L53.1,38.7z M50.3,42.3c-0.2,0.2-0.6,0.2-0.9,0c-0.1-0.1-0.2-0.3-0.2-0.4c0-0.2,0.1-0.3,0.2-0.5c0.1-0.1,0.3-0.2,0.4-0.2
		c0.2,0,0.3,0.1,0.4,0.2c0.1,0.1,0.2,0.3,0.2,0.4S50.4,42.2,50.3,42.3L50.3,42.3z M61.8,36.7l2,2l-1,1l-1,1l-2-2L61.8,36.7z
		 M63,41.8l1-1l1-1l1,1l1,1l-2,2L63,41.8z M68.1,46.9l-2-1.9l2-2l2,2L68.1,46.9z M71.3,43.8l-2-2l1-1l1-1l2,2L71.3,43.8z M69.1,39.7
		l-1,1l-1-1l-1-1l2-2l2,2L69.1,39.7z M65,37.5l-2-2l1.9-2l2,2L65,37.5z M60.7,27.3l3.8,3.8c0.2,0.2,0.2,0.5,0,0.6l-6.4,6.4
		c-0.4,0.4-1,0.7-1.6,0.7c-0.6,0-1.2-0.2-1.6-0.7l-1.2-1.2c-0.4-0.4-0.7-1-0.7-1.6c0-0.6,0.2-1.2,0.7-1.6l6.4-6.4
		C60.3,27.1,60.5,27.1,60.7,27.3L60.7,27.3z M49.9,18.5l2,2l-2,2l-2-2L49.9,18.5z M46.8,21.7l2,2l-1,1l-1,1l-2-2L46.8,21.7z"/>
</g>
</svg>
