<svg id="Layer_1" data-name="Layer 1" xmlns="http://www.w3.org/2000/svg" viewBox="0 0 95.17 93.39"><defs><style>.cls-1{stroke:#231f20;stroke-miterlimit:10;}.cls-2{fill:#fff;}</style></defs><ellipse class="cls-1" cx="47.58" cy="46.7" rx="47.08" ry="46.2"/><path class="cls-2" d="M34.43,22.69a1,1,0,0,0-.91.92V63.93a1,1,0,0,0,.91.91H63.76a1,1,0,0,0,.91-.91V30a.93.93,0,0,0-.27-.64L58,23a1,1,0,0,0-.65-.28Zm.92,1.84H56.42V30a.94.94,0,0,0,.92.92h5.5V63H35.35Zm22.91,1.3,3.28,3.28H58.26ZM38.1,27.73a1,1,0,0,0-.92.92v6.41a1,1,0,0,0,.92.92h8.25a1,1,0,0,0,.91-.92V28.65a1,1,0,0,0-.91-.92ZM39,29.57h6.41v4.58H39Zm11,1.37a.92.92,0,1,0,0,1.83h4.58a.92.92,0,1,0,0-1.83ZM48.09,37.8a.88.88,0,0,0-.67.4l-3.61,5.21-2-1.33a.92.92,0,1,0-1,1.53l2.75,1.83a.94.94,0,0,0,1.27-.24l4.13-6a1,1,0,0,0,0-1,.94.94,0,0,0-.89-.44Zm-10,.93a1,1,0,0,0-.92.91v8.25a1,1,0,0,0,.92.92h8.25a1,1,0,0,0,.91-.92V47a.92.92,0,1,0-1.83,0H39V40.56H43.6a.92.92,0,1,0,0-1.83ZM50,42.85a.92.92,0,1,0,0,1.83H60.09a.92.92,0,1,0,0-1.83ZM38.1,51.56a1,1,0,0,0-.92.91v6.42a1,1,0,0,0,.92.91h8.25a.94.94,0,0,0,.91-.91V52.47a.94.94,0,0,0-.91-.91ZM39,53.39h6.41V58H39Zm11,1.37a.92.92,0,0,0,0,1.84H60.09a.92.92,0,1,0,0-1.84Z"/></svg>